<?xml version="1.0" standalone="no"?><!DOCTYPE svg PUBLIC "-//W3C//DTD SVG 1.1//EN" "http://www.w3.org/Graphics/SVG/1.1/DTD/svg11.dtd"><svg t="1609927771340" class="icon" viewBox="0 0 1024 1024" version="1.1" xmlns="http://www.w3.org/2000/svg" p-id="4217" xmlns:xlink="http://www.w3.org/1999/xlink" width="64" height="64"><defs><style type="text/css"></style></defs><path d="M429.9 664.2c-9 0-17.7-1.4-24.7-4.1-2.6-1-3.8-3.9-2.8-6.5s3.9-3.8 6.5-2.8c18.8 7.4 53.5 2.8 63.1-12 6.4-9.8-2.1-21.7-10.3-29.9-10.4-10.4-14.8-22-13-34.6 5.1-35.8 59.8-65.8 62.1-67.1 2.4-1.3 5.5-0.4 6.8 2 1.3 2.4 0.4 5.5-2 6.8-0.5 0.3-52.6 28.9-57 59.8-1.3 9.4 2 17.9 10.2 26.1 19.7 19.6 17.2 33.9 11.7 42.4-8.8 13.1-30.5 19.9-50.6 19.9z" fill="#333333" p-id="4218"></path><path d="M932.6 359.2C870.2 187.9 705.9 65.5 513 65.5c-194.8 0-360.5 124.8-421.4 298.9l238.7 83.8 181 63.5 180.4-65.3 240.9-87.2z" fill="#CE302F" p-id="4219"></path><path d="M511.3 516.7c-0.6 0-1.1-0.1-1.7-0.3L89.9 369.1c-2.6-0.9-4-3.8-3.1-6.4 15.2-43.5 37.1-84.4 64.9-121.5 27.5-36.7 60.3-68.8 97.4-95.6C326.3 89.9 417.5 60.5 513 60.5c94.5 0 185 28.9 261.7 83.5 36.9 26.3 69.6 57.9 97.2 94 27.8 36.4 49.8 76.6 65.5 119.5 0.5 1.2 0.4 2.6-0.2 3.8-0.6 1.2-1.6 2.1-2.8 2.6L513 516.4c-0.6 0.2-1.1 0.3-1.7 0.3zM98 361.3l413.3 145 414.9-150.1C861.7 185.1 696.3 70.5 513 70.5c-185.7 0-351.9 116.6-415 290.8z" fill="#333333" p-id="4220"></path><path d="M453.8 534.5c8.5 23.3 30.8 39.9 57 39.9 26.5 0 49-17 57.2-40.6l-32.4-11.4-24.6-8.6-24.5 8.9-32.7 11.8z" fill="#CE302F" p-id="4221"></path><path d="M510.8 579.4c-27.5 0-52.3-17.4-61.7-43.2-0.5-1.2-0.4-2.6 0.2-3.8 0.6-1.2 1.6-2.1 2.8-2.6l57.2-20.7c1.1-0.4 2.3-0.4 3.4 0l57 20c2.6 0.9 4 3.8 3.1 6.4-9.3 26.2-34.2 43.9-62 43.9z m-50.4-42c9.1 19.3 28.7 32 50.4 32 21.9 0 41.7-12.9 50.6-32.6L511 519.1l-50.6 18.3z" fill="#333333" p-id="4222"></path><path d="M511.3 511.7l-0.4 0.1h0.8z" fill="#CE302F" p-id="4223"></path><path d="M511.7 516.8h-0.8c-2.4 0-4.5-1.7-4.9-4.1-0.4-2.4 0.9-4.7 3.2-5.6l0.4-0.1c1.1-0.4 2.3-0.4 3.4 0l0.4 0.1c2.3 0.8 3.7 3.2 3.3 5.6s-2.6 4.1-5 4.1z" fill="#333333" p-id="4224"></path><path d="M660.3 456.4C638.9 376.7 565 339.6 519 339.6c-129.5 0-156.7 116.8-156.7 116.8" fill="#CE302F" p-id="4225"></path><path d="M660.3 461.4c-2.2 0-4.2-1.5-4.8-3.7-11.8-44-38.9-70.8-59.5-85.5-24.1-17.2-52.9-27.5-76.9-27.6-52.1 0-93.4 19-122.9 56.5-22 28-28.8 56.2-28.9 56.4-0.6 2.7-3.3 4.4-6 3.7-2.7-0.6-4.4-3.3-3.7-6 0.3-1.2 7.3-30.6 30.7-60.4 21.7-27.5 61.9-60.3 130.8-60.3 47.2 0 123.8 37.4 146.1 120.5 0.7 2.7-0.9 5.4-3.5 6.1-0.5 0.3-1 0.3-1.4 0.3z" fill="#333333" p-id="4226"></path><path d="M510.9 516.8c-1.3 0-2.6-0.5-3.5-1.5l-314.1-315c-1.9-2-1.9-5.1 0-7.1 2-2 5.1-1.9 7.1 0l314.1 315c2 2 1.9 5.1 0 7.1-1.1 1-2.3 1.5-3.6 1.5z" fill="#333333" p-id="4227"></path><path d="M510.9 516.8c-1.9 0-3.7-1.1-4.5-2.9L315.5 111.4c-1.2-2.5-0.1-5.5 2.4-6.7 2.5-1.2 5.5-0.1 6.7 2.4l190.8 402.6c1.2 2.5 0.1 5.5-2.4 6.7-0.7 0.2-1.4 0.4-2.1 0.4z" fill="#333333" p-id="4228"></path><path d="M510.9 516.8c-2.4 0-4.6-1.8-4.9-4.3L443.1 70.9c-0.4-2.7 1.5-5.3 4.2-5.7 2.7-0.4 5.3 1.5 5.7 4.2L515.8 511c0.4 2.7-1.5 5.3-4.2 5.7-0.3 0.1-0.5 0.1-0.7 0.1z" fill="#333333" p-id="4229"></path><path d="M510.9 516.8c-0.2 0-0.5 0-0.7-0.1-2.7-0.4-4.6-2.9-4.2-5.7l65.2-441.9c0.4-2.7 2.9-4.6 5.7-4.2 2.7 0.4 4.6 2.9 4.2 5.7l-65.2 441.9c-0.4 2.5-2.6 4.3-5 4.3z" fill="#333333" p-id="4230"></path><path d="M510.9 516.8c-0.7 0-1.5-0.2-2.2-0.5-2.5-1.2-3.5-4.2-2.3-6.7l193.3-403.4c1.2-2.5 4.2-3.5 6.7-2.3 2.5 1.2 3.5 4.2 2.3 6.7L515.4 514c-0.9 1.8-2.7 2.8-4.5 2.8z" fill="#333333" p-id="4231"></path><path d="M510.9 516.8c-1.3 0-2.6-0.5-3.6-1.5-1.9-2-1.9-5.1 0.1-7.1l317-311.9c2-1.9 5.1-1.9 7.1 0.1 1.9 2 1.9 5.1-0.1 7.1l-317 311.9c-1 0.9-2.3 1.4-3.5 1.4z" fill="#333333" p-id="4232"></path><path d="M429.8 715.7H376v-34.4c0-14.9 12-26.9 26.9-26.9 14.9 0 26.9 12 26.9 26.9v34.4z" fill="#F8B739" p-id="4233"></path><path d="M434.9 720.8h-64v-39.5c0-17.6 14.4-32 32-32s32 14.4 32 32v39.5z m-53.8-10.2h43.6v-29.3c0-12-9.8-21.8-21.8-21.8s-21.8 9.8-21.8 21.8v29.3z" fill="#333333" p-id="4234"></path><path d="M468.6 867.2s-22.2 13.9-69.1 14-62.3-14-62.3-14L376 715.7h53.8l38.8 151.5z" fill="#F8B739" p-id="4235"></path><path d="M399.1 886.3c-48 0-64.7-14.7-65.4-15.3l-2.3-2.1L372 710.6h61.7l40.7 158.9-3.2 2c-1 0.6-24 14.7-71.8 14.7 0 0.1-0.1 0.1-0.3 0.1zM343 865.1c5.7 3.4 22.2 11 56.1 11h0.4c35-0.1 55.7-8 63.2-11.5l-36.8-143.7H380l-37 144.2z" fill="#333333" p-id="4236"></path><path d="M376 883.8h-0.7c-2.8-0.4-4.8-2.9-4.4-5.7l16.8-126.8c0.4-2.8 2.9-4.8 5.7-4.4 2.8 0.4 4.8 2.9 4.4 5.7L381 879.4c-0.2 2.5-2.4 4.4-5 4.4z" fill="#333333" p-id="4237"></path></svg>